<?xml version="1.0" encoding="UTF-8"?>
<svg xmlns="http://www.w3.org/2000/svg" xmlns:xlink="http://www.w3.org/1999/xlink" width="1000pt" height="1000pt" viewBox="0 0 1000 1000" version="1.1">
<g id="surface1">
<path style=" stroke:none;fill-rule:nonzero;fill:rgb(0%,78.039216%,100%);fill-opacity:1;" d="M 0 500 C 0 223.847656 223.847656 0 500 0 C 776.152344 0 1000 223.886719 1000 500 C 1000 776.113281 776.132812 1000 500 1000 C 223.867188 1000 0 776.152344 0 500 Z M 0 500 "/>
<path style=" stroke:none;fill-rule:evenodd;fill:rgb(100%,100%,100%);fill-opacity:1;" d="M 639.785156 298.925781 L 561.796875 298.925781 L 561.796875 293.652344 C 561.796875 288.398438 556.542969 284.003906 550.390625 284.003906 L 449.628906 284.003906 C 443.535156 284.003906 438.28125 288.378906 438.28125 293.652344 L 438.28125 298.925781 L 361.132812 298.925781 C 347.128906 298.925781 336.621094 309.433594 336.621094 321.679688 L 336.621094 693.203125 C 336.621094 705.449219 347.128906 715.976562 361.132812 715.976562 L 639.785156 715.976562 C 652.542969 716.078125 663.039062 705.957031 663.398438 693.203125 L 663.398438 321.699219 C 663.027344 308.953125 652.535156 298.84375 639.785156 298.945312 Z M 639.785156 298.925781 "/>
<path style=" stroke:none;fill-rule:evenodd;fill:rgb(99.215686%,99.215686%,99.215686%);fill-opacity:1;" d="M 636.289062 690.566406 L 363.769531 690.566406 L 363.769531 324.335938 L 438.261719 324.335938 L 438.261719 326.953125 C 438.347656 329.859375 439.597656 332.609375 441.730469 334.585938 C 443.867188 336.5625 446.703125 337.597656 449.609375 337.460938 L 550.371094 337.460938 C 553.285156 337.609375 556.136719 336.578125 558.28125 334.601562 C 560.425781 332.625 561.6875 329.867188 561.777344 326.953125 L 561.777344 324.335938 L 636.269531 324.335938 Z M 636.289062 690.566406 "/>
<path style=" stroke:none;fill-rule:evenodd;fill:rgb(0%,78.039216%,100%);fill-opacity:1;" d="M 459.277344 479.414062 C 459.289062 466.34375 448.707031 455.742188 435.636719 455.722656 C 422.570312 455.703125 411.957031 466.28125 411.933594 479.347656 C 411.910156 492.417969 422.476562 503.035156 435.546875 503.066406 C 441.832031 503.09375 447.867188 500.605469 452.308594 496.160156 C 456.75 491.714844 459.230469 485.679688 459.199219 479.394531 Z M 459.277344 479.414062 "/>
<path style=" stroke:none;fill-rule:evenodd;fill:rgb(0%,80.392157%,100%);fill-opacity:1;" d="M 570.546875 466.269531 L 489.960938 466.269531 C 486.457031 466.199219 483.074219 467.558594 480.589844 470.035156 C 478.105469 472.511719 476.738281 475.890625 476.796875 479.394531 C 476.796875 487.207031 482.050781 493.417969 489.960938 493.417969 L 570.546875 493.417969 C 574.28125 493.472656 577.875 492.011719 580.515625 489.367188 C 583.152344 486.726562 584.609375 483.128906 584.550781 479.394531 C 584.253906 471.925781 578.015625 466.082031 570.546875 466.269531 Z M 570.546875 466.269531 "/>
<path style=" stroke:none;fill-rule:evenodd;fill:rgb(0%,78.039216%,100%);fill-opacity:1;" d="M 459.277344 551.25 C 459.277344 538.183594 448.691406 527.589844 435.625 527.578125 C 422.558594 527.566406 411.957031 538.144531 411.933594 551.210938 C 411.910156 564.277344 422.480469 574.890625 435.546875 574.921875 C 441.832031 574.953125 447.871094 572.46875 452.3125 568.023438 C 456.757812 563.574219 459.234375 557.535156 459.199219 551.25 Z M 459.277344 551.25 "/>
<path style=" stroke:none;fill-rule:evenodd;fill:rgb(0%,80.392157%,100%);fill-opacity:1;" d="M 570.546875 538.125 L 489.960938 538.125 C 486.453125 538.050781 483.066406 539.40625 480.582031 541.882812 C 478.101562 544.359375 476.730469 547.742188 476.796875 551.25 C 476.796875 559.0625 482.050781 565.292969 489.960938 565.292969 L 570.546875 565.292969 C 574.28125 565.339844 577.878906 563.875 580.515625 561.230469 C 583.152344 558.585938 584.609375 554.984375 584.550781 551.25 C 584.253906 543.78125 578.015625 537.9375 570.546875 538.125 Z M 570.546875 538.125 "/>
<path style=" stroke:none;fill-rule:evenodd;fill:rgb(0%,78.039216%,100%);fill-opacity:1;" d="M 459.277344 412.8125 C 459.277344 399.746094 448.691406 389.152344 435.625 389.140625 C 422.558594 389.128906 411.957031 399.707031 411.933594 412.773438 C 411.910156 425.839844 422.480469 436.453125 435.546875 436.484375 C 441.832031 436.511719 447.867188 434.023438 452.308594 429.578125 C 456.75 425.132812 459.230469 419.097656 459.199219 412.8125 Z M 459.277344 412.8125 "/>
<path style=" stroke:none;fill-rule:evenodd;fill:rgb(0%,78.039216%,100%);fill-opacity:1;" d="M 459.277344 621.347656 C 459.289062 608.277344 448.707031 597.675781 435.636719 597.65625 C 422.570312 597.636719 411.957031 608.214844 411.933594 621.28125 C 411.910156 634.351562 422.476562 644.96875 435.546875 645 C 441.828125 645.027344 447.859375 642.542969 452.300781 638.101562 C 456.742188 633.660156 459.226562 627.628906 459.199219 621.347656 Z M 459.277344 621.347656 "/>
<path style=" stroke:none;fill-rule:evenodd;fill:rgb(0%,80.392157%,100%);fill-opacity:1;" d="M 570.546875 607.421875 L 489.960938 607.421875 C 482.050781 607.421875 476.796875 613.554688 476.796875 621.445312 C 476.734375 624.953125 478.097656 628.339844 480.582031 630.816406 C 483.066406 633.296875 486.453125 634.660156 489.960938 634.589844 L 570.546875 634.589844 C 578.023438 634.777344 584.265625 628.921875 584.550781 621.445312 C 584.609375 617.710938 583.152344 614.113281 580.515625 611.472656 C 577.875 608.828125 574.28125 607.367188 570.546875 607.421875 Z M 570.546875 607.421875 "/>
<path style=" stroke:none;fill-rule:evenodd;fill:rgb(0%,80.392157%,100%);fill-opacity:1;" d="M 570.546875 398.808594 L 489.960938 398.808594 C 482.050781 398.808594 476.796875 404.941406 476.796875 412.8125 C 476.734375 416.320312 478.097656 419.707031 480.582031 422.183594 C 483.066406 424.664062 486.453125 426.027344 489.960938 425.957031 L 570.546875 425.957031 C 578.023438 426.144531 584.265625 420.289062 584.550781 412.8125 C 584.605469 409.082031 583.144531 405.488281 580.507812 402.851562 C 577.871094 400.214844 574.277344 398.753906 570.546875 398.808594 Z M 570.546875 398.808594 "/>
</g>
</svg>
